<?xml version="1.0" encoding="UTF-8"?>
<svg width="10px" height="18px" viewBox="0 0 10 18" version="1.1" xmlns="http://www.w3.org/2000/svg" xmlns:xlink="http://www.w3.org/1999/xlink">
    <!-- Generator: Sketch 50 (54983) - http://www.bohemiancoding.com/sketch -->
    <title>noun_1045043_cc</title>
    <desc>Created with Sketch.</desc>
    <defs></defs>
    <g id="Page-1" stroke="none" stroke-width="1" fill="none" fill-rule="evenodd">
        <g id="profile" transform="translate(-340.000000, -621.000000)" fill="#FFFFFF" fill-rule="nonzero">
            <g id="Group-11" transform="translate(26.000000, 495.000000)">
                <g id="Group-4" transform="translate(1.000000, 125.000000)">
                    <g id="noun_1045043_cc" transform="translate(318.000000, 10.000000) scale(-1, 1) translate(-318.000000, -10.000000) translate(313.000000, 1.000000)">
                        <path d="M9.22707309,18 C9.02931258,18 8.83186106,17.9264602 8.68075967,17.7793806 L0.226188591,9.5326739 C0.0812672122,9.39132073 0,9.19993637 0,8.99981163 C0,8.79968689 0.081576213,8.60830253 0.226188591,8.46694936 L8.68137767,0.22084549 C8.98327146,-0.0736151634 9.47211073,-0.0736151634 9.77369552,0.22084549 C10.0752803,0.515306144 10.0755893,0.992410765 9.77369552,1.28626863 L1.86481987,8.99981163 L9.77338652,16.7139574 C10.0752803,17.0084181 10.0752803,17.4852213 9.77338652,17.7793806 C9.62228512,17.9264602 9.42452461,18 9.22707309,18 Z" id="Shape"></path>
                    </g>
                </g>
            </g>
        </g>
    </g>
</svg>