<?xml version="1.0" encoding="UTF-8"?>
<svg width="28px" height="28px" viewBox="0 0 28 28" version="1.1" xmlns="http://www.w3.org/2000/svg" xmlns:xlink="http://www.w3.org/1999/xlink">
    <!-- Generator: Sketch 50 (54983) - http://www.bohemiancoding.com/sketch -->
    <title>Shape</title>
    <desc>Created with Sketch.</desc>
    <defs></defs>
    <g id="Page-1" stroke="none" stroke-width="1" fill="none" fill-rule="evenodd">
        <g id="thread" transform="translate(-174.000000, -1745.000000)" fill="#FFFFFF" fill-rule="nonzero">
            <g id="noun_1292179_cc" transform="translate(174.000000, 1745.000000)">
                <path d="M26.3532488,2.27004993 C26.4571648,2.44850108 26.4260522,2.59573904 26.2602221,2.71144853 C24.5179171,4.27746769 23.1489631,5.96392562 22.1530491,7.77145288 C24.2481709,7.65637396 26.1357718,8.228931 27.8158517,9.49006985 C27.9714146,9.58433998 28.0286618,9.71612899 27.9866598,9.88417574 C27.9350129,10.0314137 27.8208297,10.1256838 27.6444213,10.1673014 C25.0418531,10.3675072 22.9202855,11.0557737 21.2822076,12.2327316 C22.8894841,12.5899491 24.2173694,13.7360091 25.2643081,15.6693349 C25.3371116,15.8373817 25.3165773,15.9789445 25.2023941,16.0949693 C25.0882108,16.2318029 24.942915,16.2790956 24.7668178,16.2365321 C22.9205967,15.4908838 21.0753089,15.2014524 19.2290878,15.3694992 L19.0735248,14.6285801 L19.04179,14.6131311 C19.0212557,14.507826 18.9901431,14.3974764 18.9487633,14.2817669 C18.928229,14.2086209 18.9123616,14.1402041 18.9020945,14.0768318 C18.7776441,13.6776814 18.606836,13.2835755 18.3887367,12.8945142 L17.4864716,11.5230257 C17.237882,11.2181454 17.0409393,10.9920862 16.8959546,10.8451635 C16.8231512,10.7720175 16.6831445,10.6455883 16.4753124,10.4671372 L16.2737028,10.2934153 L16.241968,10.2618868 C16.128407,10.1461773 16.0297801,10.0673562 15.9467095,10.0254233 L15.8070139,9.93052259 C15.1950293,9.47903488 14.5466429,9.13726625 13.862477,8.90584727 L13.7846956,8.85918514 C13.6291326,8.79581291 13.4679694,8.74820492 13.3021393,8.71699173 L13.2710267,8.71699173 L13.2862719,8.70154278 L12.5243245,8.4805282 C12.597128,7.55548285 12.5504591,6.62034839 12.384629,5.67449426 C12.3220927,5.08648827 12.1823971,4.46632324 11.9639868,3.81494502 L11.6687283,2.86909088 C11.5750794,2.71144853 11.6068142,2.56925512 11.7623772,2.44282595 C11.8862053,2.31734264 12.0268342,2.29621856 12.1823971,2.38008429 C12.7212672,2.67456022 13.1624437,2.96872085 13.5046822,3.26319677 C14.5625103,4.08293703 15.236409,5.04392483 15.5270006,6.14742132 C15.8692391,5.33840075 16.0403584,4.45591884 16.0403584,3.49966031 C16.0506255,2.6584807 15.9103077,1.76559439 15.6197161,0.819740253 L15.5578021,0.519904491 C15.4750426,0.320329268 15.5164223,0.173091307 15.6822525,0.0785058934 C15.8172811,-0.0261686311 15.9519986,-0.0261686311 16.086405,0.0785058934 C16.2528574,0.173406592 16.3769966,0.262632166 16.4600672,0.347128468 C17.7356834,1.34531987 18.5965688,2.44314124 19.0421011,3.64153843 C19.2188206,4.14599397 19.3326927,4.65013422 19.3849619,5.15522033 C21.0644195,3.49430047 23.2535014,2.45922076 25.9497185,2.04903535 C26.1460389,2.01750688 26.2810676,2.0912835 26.3532488,2.27004993 Z M15.774968,10.8770073 L15.8375043,10.8930868 L16.0083124,11.0192007 C16.3614403,11.3448898 16.6622991,11.6705789 16.9105775,11.9965833 L17.2375709,12.4067687 L17.7509286,13.2577222 C17.9478713,13.6357485 18.1193017,14.0878668 18.2636641,14.6137617 L13.2078681,14.6137617 L13.2078681,9.49038513 C13.9754157,9.71076915 14.6966056,10.0471779 15.3705043,10.4989809 L15.774968,10.8770073 Z M16.5994516,23.1261337 L16.5216702,23.2676965 L14.934928,25.0332909 C14.8627468,25.0758543 14.8157668,25.1121121 14.7952325,25.1436405 C14.3080093,25.5850391 13.7738061,26.0002691 13.1929341,26.3893304 L13.1929341,23.1103694 L16.5994516,23.1261337 Z M18.5439885,16.5521321 L18.559856,16.7885957 C18.5701231,17.1038804 18.559856,17.4352446 18.5287434,17.7817425 C18.4764742,18.7275966 18.2636641,19.7049792 17.8906241,20.7142056 L17.8747567,20.7296546 L17.7658626,21.0294903 C17.5586528,21.5232262 17.3355755,21.9649401 17.096942,22.3533708 L13.2078681,22.3379219 L13.192623,15.3855787 L18.4350945,15.3855787 C18.5184762,15.7749553 18.5545668,16.1633861 18.5439885,16.5521321 Z M4.82364721,15.385894 L4.80777979,22.3694504 L0.265341558,22.3694504 C0.0270191143,21.5074619 -0.0507623622,20.5461589 0.0319971288,19.4845952 L0.04786455,19.3896945 C0.109778605,18.580674 0.270941825,17.7666088 0.529798578,16.946238 L0.576467464,16.7419335 L0.62313635,16.6946408 C0.768432148,16.2948598 0.950129678,15.8644962 1.16760669,15.4019735 L4.82364721,15.385894 Z M12.4462319,22.3533708 L5.55479309,22.3379219 L5.57066051,15.3855787 L12.4306756,15.3694992 L12.4462319,22.3533708 Z M5.55448196,27.7292905 L5.55448196,23.1261337 L12.4459208,23.1100541 L12.4459208,26.830729 L11.9014504,27.0826415 C10.7919755,27.5555686 9.66165505,27.8393248 8.51017807,27.9342255 L8.41715142,27.9496745 L7.79489961,27.9969672 C7.03793028,28.0180913 6.29122811,27.9288657 5.55448196,27.7292905 Z M1.74318961,25.2224617 C1.69154271,25.138596 1.61376124,25.0493704 1.50984518,24.9544697 L0.794566725,23.8036805 C0.670116362,23.5728921 0.56620031,23.346833 0.483440818,23.1264489 L4.82333608,23.1103694 L4.80746866,27.4928269 L3.7810643,26.9883714 L3.74995171,26.9562124 C3.21045939,26.6409276 2.69212363,26.2313728 2.19432218,25.7272325 L1.74318961,25.2224617 Z M5.58559455,10.6878365 C6.02117082,10.4040802 6.46732537,10.1676167 6.92374707,9.97844587 L8.18411812,9.52159832 C8.81663709,9.36395596 9.44915605,9.26432599 10.0819861,9.22176256 C10.4136464,9.17982969 10.7509068,9.16942529 11.0931453,9.19023408 C11.4764525,9.16942529 11.7981566,9.17982969 12.0576357,9.22176256 L12.4624105,9.30058373 L12.446543,14.6288954 L5.58590568,14.6134464 L5.58590568,10.6878365 L5.58559455,10.6878365 Z M2.5368718,13.3365433 L2.72354734,13.1000798 L4.06169986,11.7440403 L4.80777979,11.1768431 L4.82364721,14.6288954 L1.60349408,14.6449749 C1.86297309,14.2347895 2.17409899,13.7987507 2.5368718,13.3365433 Z" id="Shape"></path>
            </g>
        </g>
    </g>
</svg>