<?xml version="1.0" encoding="UTF-8"?>
<svg width="17px" height="20px" viewBox="0 0 17 20" version="1.1" xmlns="http://www.w3.org/2000/svg" xmlns:xlink="http://www.w3.org/1999/xlink">
    <!-- Generator: Sketch 50 (54983) - http://www.bohemiancoding.com/sketch -->
    <title>Shape</title>
    <desc>Created with Sketch.</desc>
    <defs></defs>
    <g id="Page-1" stroke="none" stroke-width="1" fill="none" fill-rule="evenodd">
        <g id="thread" transform="translate(-331.000000, -670.000000)" fill="#47B39C" fill-rule="nonzero">
            <g id="noun_1117807_cc" transform="translate(331.000000, 670.000000)">
                <path d="M17,0.144948824 C16.8333831,0.640386137 16.6268021,1.12293857 16.3820857,1.5883345 C12.8952834,7.00393615 9.39622097,12.4125649 5.88489831,17.8142208 C5.55117005,18.3336966 5.17223776,18.825834 4.75205539,19.285498 C3.83989615,20.2686738 3.20726958,20.2338094 2.31717871,19.2018235 C2.13075975,18.985642 1.96808357,18.7520042 1.8316746,18.5045357 C1.21376028,17.3749295 0.6105582,16.2453233 0,15.1157172 C1.11813068,14.3347549 1.58156642,14.4184294 2.16270013,15.4573882 C2.58935526,16.2313776 2.96451752,17.0262856 3.47944613,18.0443258 C3.90610125,17.4725498 4.21505842,17.1448246 4.41367373,16.7892078 C7.84653108,11.4107948 11.2941007,6.03238186 14.7563825,0.653968894 C15.2198183,-0.0991018939 15.2271744,-0.0991018939 17,0.144948824 Z" id="Shape"></path>
            </g>
        </g>
    </g>
</svg>