<?xml version="1.0" encoding="UTF-8"?>
<svg width="12px" height="17px" viewBox="0 0 12 17" version="1.1" xmlns="http://www.w3.org/2000/svg" xmlns:xlink="http://www.w3.org/1999/xlink">
    <!-- Generator: Sketch 50 (54983) - http://www.bohemiancoding.com/sketch -->
    <title>Shape</title>
    <desc>Created with Sketch.</desc>
    <defs></defs>
    <g id="Page-1" stroke="none" stroke-width="1" fill="none" fill-rule="evenodd">
        <g id="thread" transform="translate(-333.000000, -729.000000)" fill="#EC6B56" fill-rule="nonzero">
            <g id="noun_1117807_cc" transform="translate(331.000000, 670.000000)">
                <path d="M8.59125698,67.2303614 L12.9369122,72.4797305 C13.0131518,72.573609 13.1171148,72.6361946 13.1864235,72.7222498 C13.5814831,73.1994652 14.2815009,73.5593325 13.8795105,74.4042384 C13.5745522,75.0066251 12.8537418,74.8971002 12.04283,73.9974319 C10.8784439,72.7535426 9.80415916,71.3766589 8.72987437,70.0388912 C8.43184698,69.6712007 8.18233567,69.2565709 7.82193045,68.7558859 C7.50588386,69.0692477 7.21375688,69.4120702 6.94864089,69.7807255 C6.07535132,71.2984269 5.22978523,72.8395979 4.37728827,74.3807688 C4.20401653,74.7015201 4.05846827,75.0379179 3.87826566,75.350846 C3.58023827,75.8750006 3.1851787,76.2270447 2.64457087,75.8280614 C2.10396304,75.429078 2.02772348,74.889277 2.40199044,74.2634208 C3.43469,72.4875537 4.4396661,70.6960403 5.45157306,68.9045268 C5.74960045,68.3803722 6.0337661,67.8562176 6.43575654,67.1364829 L2,61.9418762 C2.21387892,61.5743844 2.57184849,61.3461337 2.96109682,61.329056 C3.35034515,61.3119782 3.72293094,61.5081768 3.96143609,61.855821 C4.65452305,62.5677324 5.34761001,63.3265831 5.99218088,64.0697874 L7.22587567,65.4466711 C8.39026176,64.1636658 9.03483263,62.6303181 9.86653698,61.2690808 C10.1784261,60.7605726 10.4002139,60.1738323 10.7051722,59.6496778 C11.1626096,58.8673575 11.1764713,58.8673575 12.5002674,59.2506944 C11.72401,62.1609259 9.80415916,64.3514227 8.59125698,67.2303614 Z" id="Shape"></path>
            </g>
        </g>
    </g>
</svg>